<?xml version="1.0" encoding="UTF-8"?>
<svg id="Layer_2" data-name="Layer 2" xmlns="http://www.w3.org/2000/svg" viewBox="0 0 627.24 152.26">
  <defs>
    <style>
      .cls-1 {
        fill: #214096;
      }
    </style>
  </defs>
  <g id="Layer_1-2" data-name="Layer 1">
    <g>
      <path class="cls-1" d="M327.38,40.51c-12.06,0-22.83,4.26-32.1,12.67l-.94-11.22h-25.38v108.92h27.5v-56.75c0-7.91,2.4-14.39,7.34-19.84,4.86-5.36,10.87-7.96,18.38-7.96,7.93,0,13.87,2.3,18.17,7.03,4.32,4.74,6.51,11.31,6.51,19.52v58h27.7v-58.21c0-16-4.45-28.82-13.22-38.1-8.81-9.34-20.24-14.07-33.96-14.07"/>
      <path class="cls-1" d="M147.46,152.03l-23.44-24.18-29.76-31.11c8.82-2.9,15.81-7.6,20.8-14.09,7.83-10.19,11.24-22.7,10.09-37.09-.32-3.99-1.22-7.94-2.67-11.68C113.89,11.58,96.28.21,70.91.21c-7.49,0-18.8-.03-33.93-.1-15.14-.07-26.46-.1-33.96-.1H0v152.03h29.37V43.9c.36-5.15,4.64-9.22,9.88-9.22h30.7v-11.93c0-1.36,1.12-2.21,2.01-1.53l27.88,21.54c.9.68.9,2.38,0,3.06l-21.26,18.3-6.62,5.7c-.58.44-1.24.24-1.65-.32-.22-.31-.37-.72-.37-1.21v-9.33c-6.56-1.86-13.9-.23-19.07,4.94-1.67,1.67-2.98,3.58-3.91,5.61-3.31,7.18-2,15.96,3.91,21.88l2.2,2.2,55.49,57.35,1.29,1.35,37.61-.22Z"/>
      <path class="cls-1" d="M238.81,55.15c-10.13-11.16-24.41-16.82-42.43-16.82-16.72,0-30.54,5.34-41.08,15.88-10.54,10.54-15.88,24.22-15.88,40.66,0,17.29,5.38,31.33,16,41.73,10.6,10.38,24.87,15.65,42.42,15.65,8.66,0,17.25-1.61,25.55-4.78,8.39-3.21,15.39-7.81,20.82-13.68l2-2.17-18.3-17.75-2.1,2.29c-2.7,2.95-6.68,5.38-11.81,7.22-5.27,1.89-10.57,2.84-15.75,2.84-8.57,0-15.69-2.17-21.15-6.44-4.13-3.22-6.88-7.17-8.35-11.95-2.12-5.05-2.78-10.72-1.91-16.9.51-3.61,1.39-6.85,2.61-9.73,1.8-4.92,4.64-8.82,8.64-11.8,5.2-3.88,11.56-5.85,18.91-5.85,8.01,0,14.57,1.96,19.48,5.81,4.06,3.19,6.54,7.43,7.52,12.93h-40.07v24.16s66.84,0,66.84,0l.26-2.73c2.02-21.06-2.09-37.4-12.23-48.56"/>
      <path class="cls-1" d="M491.23,55.15c-10.13-11.16-24.41-16.82-42.43-16.82-16.72,0-30.54,5.34-41.08,15.88-10.54,10.54-15.88,24.22-15.88,40.66,0,17.29,5.38,31.33,16,41.73,10.6,10.38,24.87,15.65,42.42,15.65,8.66,0,17.25-1.61,25.55-4.78,8.38-3.21,15.39-7.81,20.82-13.68l2-2.17-18.3-17.75-2.1,2.29c-2.7,2.95-6.68,5.38-11.81,7.22-5.27,1.89-10.57,2.84-15.75,2.84-8.57,0-15.69-2.17-21.15-6.44-4.13-3.22-6.88-7.17-8.35-11.95-2.12-5.05-2.78-10.72-1.91-16.9.51-3.61,1.39-6.85,2.61-9.73,1.8-4.92,4.64-8.82,8.64-11.8,5.2-3.88,11.56-5.85,18.91-5.85,8.01,0,14.57,1.96,19.48,5.81,4.06,3.19,6.54,7.43,7.51,12.93h-40.07v24.16s66.84,0,66.84,0l.26-2.73c2.02-21.06-2.09-37.4-12.23-48.56"/>
      <path class="cls-1" d="M614.52,55.15c-10.13-11.16-24.41-16.82-42.43-16.82-16.72,0-30.54,5.34-41.08,15.88-10.54,10.54-15.88,24.22-15.88,40.66,0,17.29,5.38,31.33,16,41.73,10.6,10.38,24.87,15.65,42.42,15.65,8.66,0,17.25-1.61,25.55-4.78,8.38-3.21,15.39-7.81,20.82-13.68l2-2.17-18.3-17.75-2.1,2.29c-2.7,2.95-6.68,5.38-11.81,7.22-5.27,1.89-10.57,2.84-15.75,2.84-8.57,0-15.69-2.17-21.15-6.44-4.13-3.22-6.88-7.17-8.35-11.95-2.12-5.05-2.78-10.72-1.91-16.9.51-3.61,1.39-6.85,2.61-9.73,1.8-4.92,4.64-8.82,8.64-11.8,5.2-3.88,11.56-5.85,18.91-5.85,8.01,0,14.57,1.96,19.48,5.81,4.06,3.19,6.54,7.43,7.52,12.93h-40.07v24.16s66.84,0,66.84,0l.26-2.73c2.02-21.06-2.09-37.4-12.23-48.56"/>
    </g>
  </g>
</svg>